<svg xmlns="http://www.w3.org/2000/svg" width="700" height="350" viewBox="0 0 700 350"><rect width="100%" height="100%" fill="#DDDDDD"/><path fill="#999999" d="M147.76 140.745h5.12q1.89 0 3.29-.48 1.41-.47 2.34-1.35.93-.88 1.39-2.14.46-1.26.46-2.82 0-1.48-.46-2.68-.46-1.19-1.38-2.04-.92-.84-2.32-1.28-1.4-.45-3.32-.45h-5.12v13.24Zm-6.86-18.54h11.98q3.7 0 6.4.86 2.71.87 4.47 2.43 1.76 1.55 2.61 3.72.85 2.17.85 4.74 0 2.68-.89 4.91t-2.68 3.84q-1.78 1.61-4.47 2.5-2.69.89-6.29.89h-5.12v12.98h-6.86v-36.87Zm44.39 30.11v-4.41q-2.72.13-4.59.47-1.86.35-2.98.88-1.12.54-1.61 1.25-.48.72-.48 1.56 0 1.65.98 2.37.98.71 2.56.71 1.94 0 3.36-.7 1.41-.7 2.76-2.13Zm-13.31-13.74-1.12-2.02q4.51-4.13 10.86-4.13 2.3 0 4.11.75 1.81.76 3.06 2.1 1.25 1.33 1.9 3.2.65 1.86.65 4.08v16.52h-2.86q-.89 0-1.37-.27-.49-.27-.77-1.08l-.56-1.89q-.99.89-1.94 1.57-.94.68-1.96 1.13-1.02.46-2.18.71-1.16.24-2.56.24-1.66 0-3.06-.45-1.41-.44-2.43-1.34-1.02-.89-1.58-2.22-.56-1.32-.56-3.08 0-1 .33-1.98t1.09-1.87q.75-.89 1.95-1.68 1.2-.8 2.94-1.38 1.75-.59 4.07-.96 2.32-.37 5.3-.44v-1.53q0-2.63-1.12-3.89-1.12-1.27-3.24-1.27-1.53 0-2.53.36-1.01.36-1.78.81-.76.44-1.39.8-.62.36-1.39.36-.66 0-1.12-.35-.46-.34-.74-.8Zm42.77-2.83-1.43 2.27q-.26.4-.54.57-.28.17-.71.17-.46 0-.98-.26l-1.21-.57q-.69-.32-1.57-.58-.88-.25-2.08-.25-1.86 0-2.92.79-1.06.79-1.06 2.06 0 .85.55 1.42t1.45 1.01q.91.43 2.06.78 1.14.34 2.33.75 1.19.41 2.33.93 1.15.52 2.06 1.32.9.81 1.45 1.93.55 1.12.55 2.7 0 1.89-.68 3.48-.67 1.6-2 2.76-1.33 1.16-3.28 1.81-1.95.65-4.5.65-1.35 0-2.64-.24-1.28-.25-2.47-.68-1.19-.43-2.19-1.02-1.01-.59-1.78-1.28l1.46-2.39q.28-.44.66-.67.38-.22.97-.22t1.11.33q.52.33 1.21.71.69.38 1.62.72.93.33 2.36.33 1.12 0 1.92-.27.81-.27 1.33-.7.52-.44.76-1.01.25-.57.25-1.19 0-.91-.55-1.5t-1.45-1.02q-.91-.43-2.07-.78-1.16-.34-2.37-.75-1.21-.41-2.37-.96-1.16-.54-2.07-1.39-.9-.84-1.45-2.06-.55-1.23-.55-2.96 0-1.61.64-3.06.63-1.45 1.87-2.54 1.24-1.08 3.09-1.73 1.85-.65 4.27-.65 2.7 0 4.92.89 2.22.89 3.7 2.35Zm18.84 16.57v-4.41q-2.73.13-4.59.47-1.86.35-2.98.88-1.12.54-1.61 1.25-.48.72-.48 1.56 0 1.65.98 2.37.98.71 2.56.71 1.94 0 3.35-.7 1.42-.7 2.77-2.13Zm-13.31-13.74-1.12-2.02q4.51-4.13 10.86-4.13 2.3 0 4.11.75 1.81.76 3.06 2.1 1.25 1.33 1.9 3.2.65 1.86.65 4.08v16.52h-2.86q-.89 0-1.38-.27-.48-.27-.76-1.08l-.56-1.89q-1 .89-1.94 1.57t-1.96 1.13q-1.02.46-2.18.71-1.16.24-2.57.24-1.65 0-3.06-.45-1.4-.44-2.42-1.34-1.02-.89-1.58-2.22-.56-1.32-.56-3.08 0-1 .33-1.98t1.08-1.87q.76-.89 1.95-1.68 1.2-.8 2.95-1.38 1.75-.59 4.07-.96 2.32-.37 5.3-.44v-1.53q0-2.63-1.12-3.89-1.12-1.27-3.24-1.27-1.53 0-2.54.36-1 .36-1.77.81-.76.44-1.39.8-.62.36-1.39.36-.66 0-1.12-.35-.46-.34-.74-.8Zm30.83-4.52.43 2.07q.79-.79 1.67-1.47.88-.67 1.86-1.14.99-.48 2.11-.74 1.12-.27 2.45-.27 2.14 0 3.8.73 1.65.72 2.76 2.04 1.11 1.31 1.69 3.13.57 1.83.57 4.02v16.65h-6.3v-16.65q0-2.4-1.1-3.71-1.09-1.32-3.34-1.32-1.63 0-3.06.74-1.42.74-2.7 2.02v18.92h-6.3v-26.16h3.85q1.23 0 1.61 1.14Zm32.87 11.3q1.17 0 2.04-.32.87-.32 1.44-.88t.87-1.35q.29-.79.29-1.73 0-1.94-1.16-3.08-1.16-1.13-3.48-1.13-2.32 0-3.48 1.13-1.16 1.14-1.16 3.08 0 .91.29 1.71.29.79.87 1.36.57.57 1.45.89.88.32 2.03.32Zm7.11 14.89q0-.76-.46-1.25-.45-.48-1.24-.75-.8-.27-1.85-.39-1.06-.13-2.25-.2-1.18-.06-2.45-.11-1.26-.05-2.46-.2-1.04.58-1.69 1.37-.65.79-.65 1.84 0 .69.34 1.29.35.6 1.1 1.03.75.43 1.95.68 1.2.24 2.93.24 1.76 0 3.04-.27 1.27-.27 2.1-.74.83-.47 1.21-1.12.38-.65.38-1.42Zm-1.25-26.44h7.53v2.35q0 1.12-1.35 1.37l-2.35.44q.53 1.35.53 2.95 0 1.94-.77 3.51-.78 1.57-2.16 2.66-1.37 1.1-3.25 1.7-1.87.6-4.04.6-.77 0-1.48-.08-.71-.07-1.4-.2-1.23.74-1.23 1.66 0 .79.73 1.16.73.37 1.93.52 1.19.15 2.72.19 1.53.04 3.14.17 1.61.12 3.14.44t2.73 1.01q1.19.69 1.92 1.87.73 1.19.73 3.05 0 1.74-.86 3.37-.85 1.63-2.47 2.91-1.62 1.27-3.98 2.05-2.36.78-5.37.78-2.95 0-5.15-.58-2.19-.57-3.64-1.53-1.46-.95-2.17-2.2-.71-1.25-.71-2.6 0-1.84 1.1-3.08 1.11-1.23 3.05-1.97-1.04-.54-1.66-1.43-.61-.89-.61-2.35 0-.58.22-1.21.22-.62.64-1.24.42-.61 1.05-1.16.64-.54 1.51-.98-1.99-1.07-3.12-2.85-1.14-1.79-1.14-4.19 0-1.93.78-3.5t2.17-2.68q1.39-1.11 3.29-1.7 1.9-.58 4.14-.58 1.68 0 3.16.34 1.48.35 2.7 1.01Zm31.78-11.6v36.87h-6.89v-36.87h6.89Zm7.24-1.02h6.3v21.7h1.17q.64 0 1.01-.17.37-.16.75-.67l6.5-8.04q.41-.53.91-.81t1.29-.28h5.76l-8.14 9.71q-.86 1.15-1.88 1.76.53.38.95.89.42.51.81 1.1l8.72 12.7h-5.69q-.74 0-1.27-.24-.54-.24-.9-.88l-6.68-9.92q-.35-.59-.74-.77-.38-.18-1.14-.18h-1.43v11.99h-6.3v-37.89Zm27.34 0h6.29v37.89h-6.29v-37.89Zm26.41 31.13v-4.41q-2.73.13-4.59.47-1.86.35-2.98.88-1.12.54-1.61 1.25-.48.72-.48 1.56 0 1.65.98 2.37.98.71 2.56.71 1.94 0 3.36-.7 1.41-.7 2.76-2.13Zm-13.31-13.74-1.12-2.02q4.51-4.13 10.86-4.13 2.3 0 4.11.75 1.81.76 3.06 2.1 1.25 1.33 1.9 3.2.65 1.86.65 4.08v16.52h-2.86q-.89 0-1.37-.27-.49-.27-.77-1.08l-.56-1.89q-.99.89-1.94 1.57-.94.68-1.96 1.13-1.02.46-2.18.71-1.16.24-2.56.24-1.66 0-3.06-.45-1.41-.44-2.43-1.34-1.02-.89-1.58-2.22-.56-1.32-.56-3.08 0-1 .33-1.98t1.09-1.87q.75-.89 1.95-1.68 1.2-.8 2.94-1.38 1.75-.59 4.07-.96 2.32-.37 5.3-.44v-1.53q0-2.63-1.12-3.89-1.12-1.27-3.24-1.27-1.53 0-2.53.36-1.01.36-1.78.81-.76.44-1.39.8-.62.36-1.39.36-.66 0-1.12-.35-.46-.34-.74-.8Zm30.83-4.52.44 2.07q.79-.79 1.67-1.47.88-.67 1.86-1.14.98-.48 2.1-.74 1.12-.27 2.45-.27 2.14 0 3.8.73 1.66.72 2.77 2.04 1.1 1.31 1.68 3.13.57 1.83.57 4.02v16.65h-6.3v-16.65q0-2.4-1.09-3.71-1.1-1.32-3.34-1.32-1.64 0-3.06.74-1.43.74-2.71 2.02v18.92h-6.3v-26.16h3.86q1.22 0 1.6 1.14Zm69.44 6.58q0 4.06-1.35 7.45-1.35 3.39-3.8 5.84-2.45 2.45-5.89 3.8-3.45 1.35-7.65 1.35h-14.05v-36.87h14.05q4.2 0 7.65 1.36 3.44 1.37 5.89 3.8 2.45 2.44 3.8 5.83 1.35 3.39 1.35 7.44Zm-7.04 0q0-3.03-.8-5.44-.81-2.41-2.32-4.08-1.52-1.67-3.68-2.56-2.15-.9-4.85-.9h-7.17v25.96h7.17q2.7 0 4.85-.89 2.16-.89 3.68-2.56 1.51-1.67 2.32-4.08.8-2.41.8-5.45Zm12.29-7.72h6.33v26.16h-6.33v-26.16Zm7.19-7.63q0 .82-.33 1.53-.33.72-.88 1.25-.55.54-1.29.86-.74.31-1.58.31-.81 0-1.54-.31-.73-.32-1.26-.86-.54-.53-.86-1.25-.32-.71-.32-1.53 0-.84.32-1.58.32-.74.86-1.27.53-.54 1.26-.86.73-.32 1.54-.32.84 0 1.58.32.74.32 1.29.86.55.53.88 1.27.33.74.33 1.58Zm22.95 10.46-1.43 2.27q-.25.4-.53.57-.28.17-.72.17-.45 0-.98-.26-.52-.25-1.21-.57-.69-.32-1.57-.58-.88-.25-2.07-.25-1.87 0-2.92.79-1.06.79-1.06 2.06 0 .85.55 1.42.54.57 1.45 1.01.9.43 2.05.78 1.15.34 2.34.75 1.18.41 2.33.93 1.15.52 2.05 1.32.91.81 1.45 1.93.55 1.12.55 2.7 0 1.89-.67 3.48-.68 1.6-2 2.76-1.33 1.16-3.28 1.81-1.95.65-4.5.65-1.35 0-2.64-.24-1.29-.25-2.47-.68-1.19-.43-2.2-1.02-1.01-.59-1.77-1.28l1.45-2.39q.28-.44.67-.67.38-.22.97-.22.58 0 1.1.33.53.33 1.22.71.68.38 1.62.72.93.33 2.35.33 1.13 0 1.93-.27t1.33-.7q.52-.44.76-1.01.24-.57.24-1.19 0-.91-.55-1.5-.54-.59-1.45-1.02-.9-.43-2.06-.78-1.17-.34-2.38-.75t-2.37-.96q-1.16-.54-2.06-1.39-.91-.84-1.46-2.06-.55-1.23-.55-2.96 0-1.61.64-3.06t1.88-2.54q1.23-1.08 3.08-1.73 1.85-.65 4.27-.65 2.71 0 4.92.89 2.22.89 3.7 2.35Zm5.23-2.83h6.32v26.16h-6.32v-26.16Zm7.19-7.63q0 .82-.33 1.53-.33.72-.88 1.25-.55.54-1.29.86-.74.31-1.58.31-.82 0-1.54-.31-.73-.32-1.26-.86-.54-.53-.86-1.25-.32-.71-.32-1.53 0-.84.32-1.58.32-.74.86-1.27.53-.54 1.26-.86.72-.32 1.54-.32.84 0 1.58.32.74.32 1.29.86.55.53.88 1.27.33.74.33 1.58Zm11.02 8.77.43 2.07q.79-.79 1.67-1.47.88-.67 1.86-1.14.98-.48 2.11-.74 1.12-.27 2.44-.27 2.15 0 3.8.73 1.66.72 2.77 2.04 1.11 1.31 1.68 3.13.58 1.83.58 4.02v16.65h-6.3v-16.65q0-2.4-1.1-3.71-1.09-1.32-3.34-1.32-1.63 0-3.06.74-1.43.74-2.7 2.02v18.92h-6.3v-26.16h3.85q1.22 0 1.61 1.14Zm23.51-1.14h6.32v26.16h-6.32v-26.16Zm7.19-7.63q0 .82-.33 1.53-.33.72-.88 1.25-.55.54-1.29.86-.74.31-1.58.31-.82 0-1.54-.31-.73-.32-1.27-.86-.53-.53-.85-1.25-.32-.71-.32-1.53 0-.84.32-1.58.32-.74.85-1.27.54-.54 1.27-.86.72-.32 1.54-.32.84 0 1.58.32.74.32 1.29.86.55.53.88 1.27.33.74.33 1.58Zm-405.16 75.66h4.29q1.93 0 3.37-.48 1.45-.49 2.38-1.34.93-.86 1.39-2.03.45-1.17.45-2.57 0-2.81-1.84-4.31-1.85-1.51-5.65-1.51h-4.39v12.24Zm12.7 5.71 9.23 13.62h-6.19q-1.76 0-2.55-1.38l-7.76-11.8q-.43-.67-.95-.95-.53-.28-1.55-.28h-2.93v14.41h-6.86v-36.87h11.25q3.75 0 6.44.77 2.69.78 4.41 2.19 1.72 1.4 2.54 3.35.81 1.95.81 4.3 0 1.86-.55 3.51-.55 1.66-1.58 3.01-1.03 1.35-2.55 2.37-1.52 1.02-3.45 1.61.66.38 1.22.91.56.52 1.02 1.23Zm18.54-4.89v11.73q1.07 1.3 2.33 1.83 1.26.54 2.74.54 1.43 0 2.58-.54 1.15-.53 1.95-1.63.8-1.1 1.24-2.77.43-1.67.43-3.94 0-2.29-.37-3.88-.37-1.6-1.06-2.59-.69-1-1.67-1.46-.98-.45-2.23-.45-1.96 0-3.34.82-1.38.83-2.6 2.34Zm-.84-6.51.51 2.43q1.6-1.81 3.64-2.94 2.04-1.12 4.8-1.12 2.14 0 3.91.9 1.77.89 3.06 2.58 1.29 1.7 1.99 4.19.7 2.48.7 5.69 0 2.94-.79 5.44-.79 2.49-2.25 4.33-1.47 1.84-3.55 2.87t-4.65 1.03q-2.2 0-3.75-.67-1.56-.68-2.78-1.88v10.71h-6.3v-34.7h3.85q1.23 0 1.61 1.14Zm48.35 19.16h9.46q1.02 0 1.62.57.59.57.59 1.52v3.77h-25.29v-2.09q0-.64.27-1.34.26-.7.85-1.26l11.2-11.22q1.4-1.43 2.51-2.73 1.11-1.3 1.85-2.58.74-1.27 1.13-2.58.4-1.32.4-2.77 0-1.33-.39-2.33-.38-1.01-1.08-1.7-.7-.69-1.68-1.03-.99-.35-2.21-.35-1.12 0-2.08.32-.95.32-1.69.89-.74.58-1.25 1.34-.51.77-.77 1.69-.43 1.17-1.12 1.55-.69.38-1.99.18l-3.31-.59q.38-2.65 1.48-4.65 1.09-2 2.74-3.34 1.64-1.34 3.77-2.02 2.13-.67 4.58-.67 2.55 0 4.66.75 2.12.75 3.63 2.13 1.5 1.38 2.34 3.32.84 1.93.84 4.3 0 2.05-.6 3.78t-1.6 3.31q-1.01 1.58-2.36 3.06-1.35 1.48-2.83 3.01l-8.32 8.49q1.2-.35 2.39-.54 1.18-.19 2.26-.19Zm25.67-25.3-1.3 7.67q1.23-.25 2.35-.37 1.12-.11 2.17-.11 2.9 0 5.12.87 2.22.86 3.73 2.39 1.5 1.53 2.27 3.59.76 2.05.76 4.42 0 2.93-1.03 5.36-1.04 2.42-2.87 4.14-1.84 1.72-4.35 2.66-2.51.95-5.47.95-1.73 0-3.29-.36-1.55-.36-2.92-.96-1.36-.59-2.52-1.37-1.16-.78-2.08-1.65l1.94-2.67q.61-.87 1.6-.87.64 0 1.3.41.67.4 1.52.89.86.48 2.02.89 1.16.41 2.79.41 1.73 0 3.06-.56 1.32-.56 2.2-1.57.88-1.01 1.33-2.4.45-1.39.45-3.02 0-3.01-1.75-4.7-1.75-1.7-5.16-1.7-2.63 0-5.38.97l-3.93-1.12 3.06-17.9h18.21v2.67q0 1.36-.85 2.2-.84.84-2.85.84h-10.13Zm20.12 27.69q0-.79.3-1.5.29-.72.8-1.23t1.22-.81q.72-.31 1.53-.31.82 0 1.52.31.7.3 1.23.81.52.51.82 1.23.31.71.31 1.5 0 .82-.31 1.52-.3.7-.82 1.21-.53.51-1.23.8-.7.3-1.52.3-.81 0-1.53-.3-.71-.29-1.22-.8t-.8-1.21q-.3-.7-.3-1.52Zm38.23-14.97q0 4.82-1.03 8.38-1.04 3.56-2.86 5.88-1.82 2.32-4.31 3.45-2.49 1.14-5.37 1.14t-5.34-1.14q-2.46-1.13-4.27-3.45-1.81-2.32-2.83-5.88t-1.02-8.38q0-4.84 1.02-8.39 1.02-3.54 2.83-5.86 1.81-2.32 4.27-3.46 2.46-1.13 5.34-1.13t5.37 1.13q2.49 1.14 4.31 3.46 1.82 2.32 2.86 5.86 1.03 3.55 1.03 8.39Zm-6.5 0q0-4-.59-6.63-.59-2.62-1.57-4.18-.98-1.55-2.26-2.18-1.27-.62-2.65-.62-1.35 0-2.61.62-1.26.63-2.23 2.18-.97 1.56-1.55 4.18-.57 2.63-.57 6.63 0 4.01.57 6.63.58 2.63 1.55 4.19.97 1.55 2.23 2.18 1.26.62 2.61.62 1.38 0 2.65-.62 1.28-.63 2.26-2.18.98-1.56 1.57-4.19.59-2.62.59-6.63Zm36.08 0q0 4.82-1.03 8.38-1.04 3.56-2.86 5.88-1.82 2.32-4.31 3.45-2.49 1.14-5.37 1.14t-5.34-1.14q-2.46-1.13-4.27-3.45-1.81-2.32-2.83-5.88t-1.02-8.38q0-4.84 1.02-8.39 1.02-3.54 2.83-5.86 1.81-2.32 4.27-3.46 2.46-1.13 5.34-1.13t5.37 1.13q2.49 1.14 4.31 3.46 1.82 2.32 2.86 5.86 1.03 3.55 1.03 8.39Zm-6.5 0q0-4-.59-6.63-.59-2.62-1.57-4.18-.98-1.55-2.26-2.18-1.27-.62-2.65-.62-1.35 0-2.61.62-1.26.63-2.23 2.18-.97 1.56-1.55 4.18-.57 2.63-.57 6.63 0 4.01.57 6.63.58 2.63 1.55 4.19.97 1.55 2.23 2.18 1.26.62 2.61.62 1.38 0 2.65-.62 1.28-.63 2.26-2.18.98-1.56 1.57-4.19.59-2.62.59-6.63Zm36.08 0q0 4.82-1.03 8.38-1.04 3.56-2.86 5.88-1.82 2.32-4.31 3.45-2.49 1.14-5.37 1.14t-5.34-1.14q-2.46-1.13-4.27-3.45-1.81-2.32-2.83-5.88t-1.02-8.38q0-4.84 1.02-8.39 1.02-3.54 2.83-5.86 1.81-2.32 4.27-3.46 2.46-1.13 5.34-1.13t5.37 1.13q2.49 1.14 4.31 3.46 1.82 2.32 2.86 5.86 1.03 3.55 1.03 8.39Zm-6.5 0q0-4-.59-6.63-.59-2.62-1.57-4.18-.98-1.55-2.26-2.18-1.27-.62-2.65-.62-1.35 0-2.61.62-1.26.63-2.23 2.18-.97 1.56-1.55 4.18-.57 2.63-.57 6.63 0 4.01.57 6.63.58 2.63 1.55 4.19.97 1.55 2.23 2.18 1.26.62 2.61.62 1.38 0 2.65-.62 1.28-.63 2.26-2.18.98-1.56 1.57-4.19.59-2.62.59-6.63Zm42.45-19.45-14.79 37.97q-.43 1.17-1.39 1.76-.95.58-1.95.58h-2.67l14.89-38.09q.41-1.08 1.25-1.65.84-.57 1.96-.57h2.7Zm24.84 32.53h6.94q1.91 0 3.21-.45 1.3-.46 2.08-1.23.78-.76 1.12-1.78.34-1.02.34-2.17 0-1.2-.38-2.16-.38-.95-1.2-1.63-.81-.67-2.1-1.03t-3.1-.36h-6.91v10.81Zm5.84-26.21h-5.84v10.66h5.46q3.52 0 5.31-1.27 1.8-1.28 1.8-4.06 0-2.88-1.63-4.1-1.63-1.23-5.1-1.23Zm-12.7-5.3h12.7q3.62 0 6.2.69 2.57.68 4.22 1.96 1.64 1.27 2.41 3.08.76 1.82.76 4.08 0 1.31-.38 2.49-.38 1.19-1.19 2.22-.8 1.03-2.04 1.87-1.23.84-2.94 1.43 7.6 1.71 7.6 8.21 0 2.35-.9 4.34-.89 1.99-2.6 3.43-1.7 1.44-4.2 2.25-2.5.82-5.72.82H429.8v-36.87Zm48.83 10.71h6.3v26.16h-3.85q-1.25 0-1.58-1.15l-.43-2.09q-1.61 1.63-3.55 2.64-1.94 1.01-4.56 1.01-2.14 0-3.79-.73-1.64-.73-2.77-2.05-1.12-1.33-1.69-3.15-.58-1.82-.58-4.02v-16.62h6.3v16.62q0 2.4 1.11 3.71 1.11 1.32 3.33 1.32 1.63 0 3.06-.73 1.43-.73 2.7-2v-18.92Zm12.6-11.73h6.3v37.89h-6.3v-37.89Zm26.42 31.13v-4.41q-2.73.13-4.59.47-1.86.35-2.99.88-1.12.54-1.6 1.25-.49.72-.49 1.56 0 1.65.99 2.37.98.71 2.56.71 1.94 0 3.35-.7 1.42-.7 2.77-2.13Zm-13.31-13.74-1.12-2.02q4.51-4.13 10.86-4.13 2.29 0 4.1.75 1.81.76 3.06 2.1 1.25 1.33 1.9 3.2.65 1.86.65 4.08v16.52h-2.85q-.89 0-1.38-.27-.48-.27-.76-1.08l-.57-1.89q-.99.89-1.93 1.57-.95.68-1.97 1.13-1.02.46-2.18.71-1.16.24-2.56.24-1.66 0-3.06-.45-1.4-.44-2.42-1.34-1.02-.89-1.58-2.22-.56-1.32-.56-3.08 0-1 .33-1.98t1.08-1.87q.75-.89 1.95-1.68 1.2-.79 2.95-1.38 1.74-.59 4.06-.96 2.32-.37 5.31-.44v-1.53q0-2.63-1.12-3.89-1.13-1.26-3.24-1.26-1.53 0-2.54.35-1.01.36-1.77.81-.77.44-1.39.8-.63.36-1.39.36-.66 0-1.12-.35-.46-.34-.74-.8Zm30.83-4.52.43 2.07q.79-.79 1.67-1.47.88-.67 1.86-1.14.98-.48 2.11-.74 1.12-.27 2.44-.27 2.15 0 3.8.73 1.66.72 2.77 2.04 1.11 1.31 1.68 3.13.58 1.83.58 4.02v16.65h-6.3v-16.65q0-2.4-1.1-3.71-1.09-1.31-3.34-1.31-1.63 0-3.06.73-1.43.74-2.7 2.02v18.92h-6.3v-26.16h3.85q1.22 0 1.61 1.14Z"/></svg>